<svg xmlns="http://www.w3.org/2000/svg" viewBox="0 0 100 100">
  <!-- Map Background -->
  <rect x="10" y="10" width="80" height="80" rx="6" ry="6" fill="#e6f2ff" stroke="#4d94ff" stroke-width="2"/>
  
  <!-- Map Grid Lines -->
  <line x1="10" y1="30" x2="90" y2="30" stroke="#b3d7ff" stroke-width="1"/>
  <line x1="10" y1="50" x2="90" y2="50" stroke="#b3d7ff" stroke-width="1"/>
  <line x1="10" y1="70" x2="90" y2="70" stroke="#b3d7ff" stroke-width="1"/>
  <line x1="30" y1="10" x2="30" y2="90" stroke="#b3d7ff" stroke-width="1"/>
  <line x1="50" y1="10" x2="50" y2="90" stroke="#b3d7ff" stroke-width="1"/>
  <line x1="70" y1="10" x2="70" y2="90" stroke="#b3d7ff" stroke-width="1"/>
  
  <!-- Location Pin -->
  <path d="M50,25 C43,25 37,31 37,38 C37,48 50,65 50,65 C50,65 63,48 63,38 C63,31 57,25 50,25 Z" fill="#ff5555" stroke="#cc0000" stroke-width="1.5"/>
  
  <!-- Center of Pin -->
  <circle cx="50" cy="38" r="5" fill="white"/>
  
  <!-- H3 Hexagon -->
  <path d="M70,75 L78,70 L78,60 L70,55 L62,60 L62,70 Z" fill="none" stroke="#5577ff" stroke-width="2"/>
  <path d="M25,35 L33,30 L33,20 L25,15 L17,20 L17,30 Z" fill="none" stroke="#5577ff" stroke-width="2"/>
</svg>